<?xml version="1.0" standalone="no"?><!DOCTYPE svg PUBLIC "-//W3C//DTD SVG 1.1//EN" "http://www.w3.org/Graphics/SVG/1.1/DTD/svg11.dtd"><svg t="1711424621875" class="icon" viewBox="0 0 1024 1024" version="1.1" xmlns="http://www.w3.org/2000/svg" p-id="5450" xmlns:xlink="http://www.w3.org/1999/xlink" width="40" height="40"><path d="M0 0m93.090909 0l837.818182 0q93.090909 0 93.090909 93.090909l0 837.818182q0 93.090909-93.090909 93.090909l-837.818182 0q-93.090909 0-93.090909-93.090909l0-837.818182q0-93.090909 93.090909-93.090909Z" fill="#3471DB" p-id="5451"></path><path d="M775.749818 232.727273c8.587636 0 15.522909 6.935273 15.522909 15.522909v418.909091a15.522909 15.522909 0 0 1-15.522909 15.499636H535.272727v62.045091L660.014545 744.727273a14.894545 14.894545 0 0 1 14.894546 14.894545v16.756364a14.894545 14.894545 0 0 1-14.894546 14.894545H363.985455a14.894545 14.894545 0 0 1-14.894546-14.894545v-16.756364a14.894545 14.894545 0 0 1 14.894546-14.894545l124.718545-0.023273v-62.045091H248.250182a15.522909 15.522909 0 0 1-15.522909-15.499636v-418.909091c0-8.587636 6.935273-15.522909 15.522909-15.522909h527.499636zM744.727273 279.272727H279.272727v356.840728h465.454546V279.272727z m-258.932364 103.261091c16.593455 0 29.323636 4.096 38.213818 12.334546 8.890182 8.192 13.335273 18.385455 13.335273 30.510545 0 10.170182-3.165091 18.897455-9.518545 26.181818-4.212364 4.864-10.402909 8.704-18.548364 11.52 12.357818 2.978909 21.457455 8.075636 27.298909 15.313455 5.818182 7.237818 8.750545 16.337455 8.750545 27.298909 0 8.936727-2.094545 16.965818-6.213818 24.087273a45.847273 45.847273 0 0 1-17.035636 16.896c-4.468364 2.583273-11.194182 4.468364-20.200727 5.632-11.985455 1.582545-19.921455 2.350545-23.831273 2.350545h-84.386909a7.447273 7.447273 0 0 1-7.447273-7.447273v-157.230545a7.447273 7.447273 0 0 1 7.447273-7.447273z m135.330909 0a7.447273 7.447273 0 0 1 7.447273 7.447273v157.230545a7.447273 7.447273 0 0 1-7.447273 7.447273h-38.4a7.447273 7.447273 0 0 1-7.447273-7.447273v-157.230545a7.447273 7.447273 0 0 1 7.447273-7.447273z m-154.228363 100.258909H439.854545v34.885818h27.136c9.146182 0 15.592727-1.629091 19.36291-4.887272a16.430545 16.430545 0 0 0 5.632-13.079273 15.173818 15.173818 0 0 0-5.585455-12.264727c-3.723636-3.095273-10.24-4.654545-19.549091-4.654546z m-3.537455-65.396363h-23.482182v32.651636h23.133091c8.308364 0 14.08-1.442909 17.314909-4.282182 3.258182-2.862545 4.887273-6.981818 4.887273-12.404363 0-5.003636-1.629091-8.913455-4.887273-11.729455-3.258182-2.816-8.890182-4.235636-16.965818-4.235636z" fill="#FFFFFF" p-id="5452"></path></svg>