<svg xmlns="http://www.w3.org/2000/svg" xmlns:xlink="http://www.w3.org/1999/xlink" width="30" height="30" viewBox="0 0 30 30"><defs><style>.a{fill:#fff;stroke:#707070;}.b{clip-path:url(#a);}.c{fill:#0f75ff;}</style><clipPath id="a"><rect class="a" width="30" height="30" transform="translate(1544.01 293.01)"/></clipPath></defs><g class="b" transform="translate(-1544.01 -293.01)"><path class="c" d="M30.249,23.709H13.422V21.8H26.616l-.956-1.53,1.53-1.147,3.059,4.589ZM15.717,29.827l1.721-.765-.765-1.53H30.249V25.621H13.614l2.1,4.207ZM14.379,17.973A12.289,12.289,0,0,0,2.141,29.254H.229A14,14,0,0,1,9.981,16.825,8.871,8.871,0,0,1,5.965,9.56a8.488,8.488,0,0,1,8.413-8.413A8.488,8.488,0,0,1,22.792,9.56a8.6,8.6,0,0,1-4.207,7.266,9.706,9.706,0,0,1,3.442,1.721l-1.338,1.338a11.205,11.205,0,0,0-6.31-1.912Zm0-1.721a6.447,6.447,0,0,0,6.5-6.5,6.611,6.611,0,0,0-6.5-6.692,6.447,6.447,0,0,0-6.5,6.5,6.611,6.611,0,0,0,6.5,6.692Z" transform="translate(1543.771 292.523)"/></g></svg>